<svg width="21" height="21" viewBox="0 0 21 21" fill="none" xmlns="http://www.w3.org/2000/svg">
<path opacity="0.987" fill-rule="evenodd" clip-rule="evenodd" d="M8.93935 0.091125C10.0269 -0.030375 10.6704 -0.030375 11.8389 0.091125C13.9073 0.397268 15.8247 1.35335 17.3139 2.82112C16.3075 3.77233 15.3144 4.73742 14.3349 5.71612C12.4589 4.12612 10.3649 3.75912 8.05285 4.61512C6.35685 5.39512 5.17585 6.65912 4.50985 8.40712C3.42151 7.59687 2.34735 6.76774 1.28785 5.92012C1.21422 5.88137 1.13012 5.86718 1.04785 5.87962C2.73085 2.63462 5.36085 0.704625 8.93785 0.0896249" fill="#F44336"/>
<path opacity="0.997" fill-rule="evenodd" clip-rule="evenodd" d="M1.04438 5.87966C1.12938 5.86666 1.20988 5.88016 1.28588 5.92016C2.34538 6.76778 3.41954 7.59691 4.50788 8.40716C4.33662 9.08825 4.22866 9.7837 4.18538 10.4847C4.22238 11.1627 4.32988 11.8282 4.50788 12.4812L1.12538 15.1737C-0.347622 12.0957 -0.374622 8.99766 1.04438 5.87966Z" fill="#FFC107"/>
<path opacity="0.999" fill-rule="evenodd" clip-rule="evenodd" d="M17.1529 18.4346C16.0996 17.5058 14.997 16.6345 13.8498 15.8246C14.9998 15.0126 15.6978 13.8986 15.9438 12.4826H10.3083V8.56911C13.5583 8.54211 16.8068 8.56961 20.0539 8.65161C20.6698 11.9966 19.9583 15.0126 17.9193 17.6996C17.6769 17.9573 17.4201 18.2027 17.1529 18.4346Z" fill="#448AFF"/>
<path opacity="0.993" fill-rule="evenodd" clip-rule="evenodd" d="M4.5075 12.4827C5.7375 15.5397 7.9925 16.9667 11.2725 16.7637C12.1933 16.6571 13.076 16.3354 13.8495 15.8247C14.9975 16.6367 16.0985 17.5067 17.1525 18.4347C15.4825 19.9353 13.3532 20.8258 11.112 20.9607C10.6028 21.0014 10.0912 21.0014 9.582 20.9607C5.764 20.5107 2.945 18.5817 1.125 15.1737L4.5075 12.4827Z" fill="#43A047"/>
</svg>
