<svg width="25" height="25" viewBox="0 0 25 25" fill="none" xmlns="http://www.w3.org/2000/svg">
<path d="M13.7857 0C15.192 0.00375 15.9057 0.01125 16.522 0.02875L16.7645 0.0375C17.0445 0.0475 17.3207 0.0599999 17.6545 0.0749999C18.9845 0.1375 19.892 0.3475 20.6882 0.65625C21.5132 0.97375 22.2082 1.40375 22.9032 2.0975C23.5391 2.72217 24.0309 3.47809 24.3445 4.3125C24.6532 5.10875 24.8632 6.01625 24.9257 7.3475C24.9407 7.68 24.9532 7.95625 24.9632 8.2375L24.9707 8.48C24.9895 9.095 24.997 9.80875 24.9995 11.215L25.0007 12.1475V13.785C25.0038 14.6968 24.9942 15.6085 24.972 16.52L24.9645 16.7625C24.9545 17.0437 24.942 17.32 24.927 17.6525C24.8645 18.9837 24.652 19.89 24.3445 20.6875C24.0309 21.5219 23.5391 22.2778 22.9032 22.9025C22.2785 23.5384 21.5226 24.0302 20.6882 24.3438C19.892 24.6525 18.9845 24.8625 17.6545 24.925L16.7645 24.9625L16.522 24.97C15.9057 24.9875 15.192 24.9963 13.7857 24.9988L12.8532 25H11.217C10.3048 25.0032 9.39262 24.9936 8.48071 24.9712L8.23821 24.9638C7.94147 24.9525 7.6448 24.9396 7.34821 24.925C6.01821 24.8625 5.11071 24.6525 4.31321 24.3438C3.47925 24.0301 2.72376 23.5382 2.09946 22.9025C1.46314 22.278 0.970847 21.522 0.656961 20.6875C0.348211 19.8912 0.138211 18.9837 0.0757109 17.6525L0.038211 16.7625L0.0319611 16.52C0.00891867 15.6085 -0.00149912 14.6968 0.000710996 13.785V11.215C-0.00274887 10.3033 0.00641877 9.3915 0.0282111 8.48L0.0369611 8.2375C0.0469611 7.95625 0.059461 7.68 0.074461 7.3475C0.136961 6.01625 0.346961 5.11 0.655711 4.3125C0.970329 3.47775 1.46349 2.7218 2.10071 2.0975C2.72465 1.46194 3.4797 0.970092 4.31321 0.65625C5.11071 0.3475 6.01696 0.1375 7.34821 0.0749999C7.68071 0.0599999 7.95821 0.0475 8.23821 0.0375L8.48071 0.0299999C9.3922 0.00779088 10.304 -0.00179337 11.2157 0.00124991L13.7857 0ZM12.5007 6.25C10.8431 6.25 9.2534 6.90848 8.08129 8.08058C6.90919 9.25268 6.25071 10.8424 6.25071 12.5C6.25071 14.1576 6.90919 15.7473 8.08129 16.9194C9.2534 18.0915 10.8431 18.75 12.5007 18.75C14.1583 18.75 15.748 18.0915 16.9201 16.9194C18.0922 15.7473 18.7507 14.1576 18.7507 12.5C18.7507 10.8424 18.0922 9.25268 16.9201 8.08058C15.748 6.90848 14.1583 6.25 12.5007 6.25ZM12.5007 8.75C12.9932 8.74992 13.4808 8.84683 13.9358 9.03521C14.3908 9.22359 14.8043 9.49975 15.1525 9.84791C15.5008 10.1961 15.7771 10.6094 15.9656 11.0644C16.1542 11.5193 16.2513 12.0069 16.2513 12.4994C16.2514 12.9918 16.1545 13.4795 15.9661 13.9345C15.7777 14.3895 15.5016 14.8029 15.1534 15.1512C14.8053 15.4995 14.3919 15.7758 13.937 15.9643C13.482 16.1528 12.9944 16.2499 12.502 16.25C11.5074 16.25 10.5536 15.8549 9.85031 15.1517C9.14705 14.4484 8.75196 13.4946 8.75196 12.5C8.75196 11.5054 9.14705 10.5516 9.85031 9.84835C10.5536 9.14509 11.5074 8.75 12.502 8.75M19.0645 4.375C18.6501 4.375 18.2526 4.53962 17.9596 4.83265C17.6666 5.12567 17.502 5.5231 17.502 5.9375C17.502 6.3519 17.6666 6.74933 17.9596 7.04235C18.2526 7.33538 18.6501 7.5 19.0645 7.5C19.4789 7.5 19.8763 7.33538 20.1693 7.04235C20.4623 6.74933 20.627 6.3519 20.627 5.9375C20.627 5.5231 20.4623 5.12567 20.1693 4.83265C19.8763 4.53962 19.4789 4.375 19.0645 4.375Z" fill="#B6003F"/>
</svg>
