<svg viewBox="0 0 262 44" xmlns="http://www.w3.org/2000/svg" data-logo="logo">
        <g transform="translate(0, 2) rotate(0)" id="logogram" style="opacity: 1;"><path fill="#FF2D55" d="M20 0C27.4768 0 31.2154 -0.000204921 34 1.60742C35.8242 2.66064 37.3394 4.17577 38.3926 6C40.0002 8.7846 40 12.5232 40 20C40 27.4768 40.0002 31.2154 38.3926 34C37.3394 35.8242 35.8242 37.3394 34 38.3926C31.2154 40.0002 27.4768 40 20 40C12.5232 40 8.7846 40.0002 6 38.3926C4.17577 37.3394 2.66064 35.8242 1.60742 34C-0.000204921 31.2154 0 27.4768 0 20C0 12.5232 -0.000204921 8.7846 1.60742 6C2.66064 4.17577 4.17577 2.66064 6 1.60742C8.7846 -0.000204921 12.5232 0 20 0ZM22 4C13.1634 4 6 11.1634 6 20C6 28.8366 13.1634 36 22 36C30.8366 36 38 28.8366 38 20C38 11.1634 30.8366 4 22 4Z" clip-rule="evenodd" fill-rule="evenodd"></path><path fill="#FF3D55" d="M36 20C36 25.5228 31.5228 30 26 30C20.4772 30 16 25.5228 16 20C16 14.4772 20.4772 10 26 10C31.5228 10 36 14.4772 36 20Z"></path></g>
        <g transform="translate(46, 1)" id="logotype" style="opacity: 1;"><path d="M13.49 34L8.31 34L8.31 8.54L16.31 8.54L20.44 20.23Q20.70 21.05 21.03 22.34Q21.36 23.64 21.71 25.15Q22.05 26.65 22.35 28.07Q22.65 29.49 22.83 30.53L22.83 30.53L21.83 30.53Q22.01 29.51 22.31 28.10Q22.61 26.69 22.95 25.18Q23.29 23.68 23.63 22.36Q23.96 21.05 24.22 20.23L24.22 20.23L28.29 8.54L36.32 8.54L36.32 34L31.07 34L31.07 21.99Q31.07 21.17 31.10 19.92Q31.14 18.67 31.17 17.23Q31.21 15.78 31.24 14.32Q31.28 12.86 31.29 11.56L31.29 11.56L31.62 11.56Q31.29 12.98 30.90 14.49Q30.51 16.00 30.11 17.42Q29.70 18.84 29.34 20.03Q28.99 21.22 28.73 21.99L28.73 21.99L24.51 34L20.12 34L15.83 21.99Q15.57 21.22 15.21 20.05Q14.85 18.88 14.45 17.46Q14.05 16.04 13.64 14.53Q13.23 13.01 12.85 11.56L12.85 11.56L13.26 11.56Q13.28 12.79 13.31 14.24Q13.35 15.70 13.39 17.16Q13.43 18.62 13.46 19.88Q13.49 21.13 13.49 21.99L13.49 21.99L13.49 34ZM43.85 34.38L43.85 34.38Q42.04 34.38 40.60 33.74Q39.15 33.09 38.32 31.82Q37.49 30.55 37.49 28.65L37.49 28.65Q37.49 27.06 38.08 25.98Q38.67 24.91 39.69 24.26Q40.71 23.61 42.00 23.27Q43.29 22.93 44.71 22.79L44.71 22.79Q46.36 22.62 47.38 22.47Q48.40 22.33 48.87 22.01Q49.34 21.70 49.34 21.08L49.34 21.08L49.34 20.99Q49.34 20.17 49.00 19.61Q48.65 19.05 47.99 18.75Q47.32 18.45 46.35 18.45L46.35 18.45Q45.36 18.45 44.62 18.75Q43.89 19.05 43.42 19.54Q42.96 20.04 42.74 20.65L42.74 20.65L38.04 19.87Q38.54 18.21 39.68 17.05Q40.83 15.88 42.53 15.27Q44.23 14.65 46.35 14.65L46.35 14.65Q47.90 14.65 49.35 15.02Q50.81 15.39 51.96 16.16Q53.11 16.93 53.79 18.16Q54.46 19.39 54.46 21.13L54.46 21.13L54.46 34L49.61 34L49.61 31.35L49.44 31.35Q48.98 32.24 48.21 32.91Q47.44 33.59 46.36 33.98Q45.27 34.38 43.85 34.38ZM45.30 30.77L45.30 30.77Q46.52 30.77 47.43 30.29Q48.35 29.81 48.86 28.99Q49.37 28.17 49.37 27.16L49.37 27.16L49.37 25.10Q49.15 25.27 48.69 25.40Q48.23 25.54 47.66 25.64Q47.10 25.75 46.55 25.83Q46.01 25.92 45.58 25.97L45.58 25.97Q44.64 26.10 43.92 26.41Q43.20 26.72 42.81 27.22Q42.42 27.73 42.42 28.51L42.42 28.51Q42.42 29.25 42.79 29.75Q43.17 30.26 43.81 30.51Q44.45 30.77 45.30 30.77ZM54.72 14.89L66.05 14.89L66.05 18.81L54.72 18.81L54.72 14.89ZM57.35 28.86L57.35 10.35L62.48 10.35L62.48 28.41Q62.48 29.32 62.88 29.75Q63.28 30.19 64.22 30.19L64.22 30.19Q64.51 30.19 65.04 30.11Q65.57 30.04 65.84 29.97L65.84 29.97L66.58 33.81Q65.72 34.07 64.88 34.17Q64.03 34.27 63.26 34.27L63.26 34.27Q60.39 34.27 58.87 32.87Q57.35 31.47 57.35 28.86L57.35 28.86ZM75.65 34.38L75.65 34.38Q72.76 34.38 70.67 33.14Q68.58 31.90 67.44 29.68Q66.30 27.47 66.30 24.53L66.30 24.53Q66.30 21.56 67.44 19.35Q68.58 17.13 70.67 15.89Q72.76 14.65 75.65 14.65L75.65 14.65Q77.34 14.65 78.78 15.10Q80.22 15.54 81.33 16.36Q82.44 17.18 83.15 18.36Q83.87 19.54 84.15 21.01L84.15 21.01L79.38 21.90Q79.22 21.15 78.90 20.56Q78.57 19.97 78.11 19.55Q77.65 19.13 77.04 18.91Q76.44 18.69 75.70 18.69L75.70 18.69Q74.34 18.69 73.40 19.42Q72.47 20.16 72.00 21.47Q71.53 22.79 71.53 24.52L71.53 24.52Q71.53 26.22 72.00 27.53Q72.47 28.84 73.40 29.59Q74.34 30.34 75.70 30.34L75.70 30.34Q76.44 30.34 77.05 30.11Q77.67 29.88 78.15 29.45Q78.63 29.01 78.95 28.39Q79.28 27.78 79.41 27.01L79.41 27.01L84.18 27.88Q83.91 29.40 83.19 30.59Q82.47 31.78 81.36 32.63Q80.25 33.49 78.81 33.93Q77.36 34.38 75.65 34.38ZM90.55 22.94L90.55 22.94L90.55 34L85.43 34L85.43 8.54L90.45 8.54L90.45 19.66L90.04 19.66Q90.79 17.27 92.32 15.96Q93.85 14.65 96.28 14.65L96.28 14.65Q98.26 14.65 99.74 15.52Q101.22 16.38 102.03 18.00Q102.84 19.61 102.84 21.85L102.84 21.85L102.84 34L97.71 34L97.71 22.74Q97.71 20.96 96.80 19.95Q95.88 18.94 94.26 18.94L94.26 18.94Q93.18 18.94 92.34 19.41Q91.49 19.88 91.02 20.77Q90.55 21.66 90.55 22.94ZM110.07 34L104.94 34L104.94 14.89L109.69 14.89L109.95 19.64L109.57 19.64Q110.02 17.88 110.88 16.77Q111.74 15.66 112.90 15.13Q114.07 14.60 115.35 14.60L115.35 14.60Q117.42 14.60 118.68 15.91Q119.94 17.22 120.54 19.95L120.54 19.95L119.94 19.95Q120.37 18.12 121.34 16.94Q122.30 15.75 123.63 15.18Q124.95 14.60 126.40 14.60L126.40 14.60Q128.17 14.60 129.54 15.37Q130.92 16.14 131.71 17.59Q132.51 19.03 132.51 21.11L132.51 21.11L132.51 34L127.38 34L127.38 22.09Q127.38 20.46 126.50 19.68Q125.62 18.89 124.34 18.89L124.34 18.89Q123.38 18.89 122.67 19.31Q121.96 19.73 121.58 20.48Q121.19 21.23 121.19 22.24L121.19 22.24L121.19 34L116.24 34L116.24 21.95Q116.24 20.55 115.41 19.72Q114.58 18.89 113.26 18.89L113.26 18.89Q112.36 18.89 111.63 19.30Q110.90 19.71 110.49 20.51Q110.07 21.30 110.07 22.45L110.07 22.45L110.07 34ZM139.94 34.38L139.94 34.38Q138.13 34.38 136.68 33.74Q135.24 33.09 134.41 31.82Q133.58 30.55 133.58 28.65L133.58 28.65Q133.58 27.06 134.17 25.98Q134.76 24.91 135.78 24.26Q136.79 23.61 138.08 23.27Q139.37 22.93 140.79 22.79L140.79 22.79Q142.45 22.62 143.47 22.47Q144.48 22.33 144.95 22.01Q145.42 21.70 145.42 21.08L145.42 21.08L145.42 20.99Q145.42 20.17 145.08 19.61Q144.74 19.05 144.07 18.75Q143.41 18.45 142.43 18.45L142.43 18.45Q141.44 18.45 140.71 18.75Q139.97 19.05 139.51 19.54Q139.05 20.04 138.83 20.65L138.83 20.65L134.13 19.87Q134.62 18.21 135.77 17.05Q136.91 15.88 138.61 15.27Q140.31 14.65 142.43 14.65L142.43 14.65Q143.99 14.65 145.44 15.02Q146.89 15.39 148.05 16.16Q149.20 16.93 149.88 18.16Q150.55 19.39 150.55 21.13L150.55 21.13L150.55 34L145.70 34L145.70 31.35L145.53 31.35Q145.06 32.24 144.30 32.91Q143.53 33.59 142.44 33.98Q141.36 34.38 139.94 34.38ZM141.39 30.77L141.39 30.77Q142.60 30.77 143.52 30.29Q144.43 29.81 144.95 28.99Q145.46 28.17 145.46 27.16L145.46 27.16L145.46 25.10Q145.24 25.27 144.77 25.40Q144.31 25.54 143.75 25.64Q143.18 25.75 142.64 25.83Q142.09 25.92 141.66 25.97L141.66 25.97Q140.72 26.10 140.01 26.41Q139.29 26.72 138.90 27.22Q138.50 27.73 138.50 28.51L138.50 28.51Q138.50 29.25 138.88 29.75Q139.25 30.26 139.90 30.51Q140.54 30.77 141.39 30.77ZM160.79 24.48L157.30 28.41L157.30 22.24L158.07 22.24L164.32 14.89L170.25 14.89L162.00 24.48L160.79 24.48ZM157.78 34L152.65 34L152.65 8.54L157.78 8.54L157.78 34ZM170.61 34L164.58 34L158.84 25.63L162.27 21.99L170.61 34ZM175.81 34L170.68 34L170.68 14.89L175.81 14.89L175.81 34ZM173.24 12.40L173.24 12.40Q172.08 12.40 171.26 11.63Q170.44 10.86 170.44 9.77L170.44 9.77Q170.44 8.67 171.26 7.90Q172.08 7.13 173.24 7.13L173.24 7.13Q174.40 7.13 175.23 7.90Q176.06 8.66 176.06 9.77L176.06 9.77Q176.06 10.86 175.23 11.63Q174.40 12.40 173.24 12.40ZM183.02 22.94L183.02 22.94L183.02 34L177.89 34L177.89 14.89L182.72 14.89L182.81 19.66L182.50 19.66Q183.25 17.27 184.78 15.96Q186.31 14.65 188.74 14.65L188.74 14.65Q190.72 14.65 192.19 15.52Q193.66 16.38 194.48 18.00Q195.30 19.61 195.30 21.85L195.30 21.85L195.30 34L190.18 34L190.18 22.74Q190.18 20.96 189.26 19.95Q188.35 18.94 186.72 18.94L186.72 18.94Q185.65 18.94 184.80 19.41Q183.96 19.88 183.49 20.77Q183.02 21.66 183.02 22.94ZM205.88 41.55L205.88 41.55Q203.50 41.55 201.73 40.95Q199.95 40.34 198.84 39.28Q197.73 38.22 197.30 36.87L197.30 36.87L201.71 35.64Q201.95 36.17 202.45 36.67Q202.96 37.18 203.79 37.50Q204.63 37.83 205.86 37.83L205.86 37.83Q207.83 37.83 208.95 36.93Q210.07 36.03 210.07 34.14L210.07 34.14L210.07 30.62L209.67 30.62Q209.33 31.39 208.68 32.10Q208.03 32.82 206.98 33.27Q205.93 33.73 204.38 33.73L204.38 33.73Q202.22 33.73 200.46 32.72Q198.70 31.71 197.65 29.64Q196.60 27.57 196.60 24.41L196.60 24.41Q196.60 21.18 197.67 19.01Q198.74 16.84 200.50 15.75Q202.27 14.65 204.39 14.65L204.39 14.65Q206.00 14.65 207.09 15.19Q208.19 15.73 208.86 16.54Q209.54 17.35 209.88 18.11L209.88 18.11L210.10 18.11L210.10 14.89L215.14 14.89L215.14 33.85Q215.14 36.43 213.95 38.14Q212.77 39.86 210.68 40.71Q208.60 41.55 205.88 41.55ZM205.98 29.83L205.98 29.83Q207.30 29.83 208.21 29.18Q209.13 28.53 209.60 27.31Q210.08 26.09 210.08 24.38L210.08 24.38Q210.08 22.69 209.60 21.42Q209.13 20.16 208.21 19.46Q207.30 18.76 205.98 18.76L205.98 18.76Q204.63 18.76 203.72 19.48Q202.80 20.21 202.33 21.47Q201.86 22.74 201.86 24.38L201.86 24.38Q201.86 26.05 202.33 27.28Q202.80 28.50 203.73 29.16Q204.65 29.83 205.98 29.83Z" fill="#000000"></path></g>
        
      </svg>