<svg width="20" height="20" viewBox="0 0 20 20" fill="none" xmlns="http://www.w3.org/2000/svg">
<path fill-rule="evenodd" clip-rule="evenodd" d="M9.99973 1.875C9.54186 1.875 9.09449 2.01215 8.7153 2.26878C8.3361 2.5254 8.04248 2.88973 7.87228 3.31479C7.70207 3.73985 7.6631 4.20614 7.76038 4.65356C7.85766 5.10097 8.08673 5.50899 8.41806 5.825L8.25139 6.12167L6.75389 8.8075C6.65841 8.988 6.55469 9.16402 6.44306 9.335C6.42745 9.35719 6.41076 9.37861 6.39306 9.39917C6.37005 9.38416 6.3478 9.36803 6.32639 9.35083C6.17194 9.21689 6.02372 9.0759 5.88223 8.92833L5.81556 8.8625C5.5793 8.62197 5.337 8.38745 5.08889 8.15917C5.2198 7.81023 5.24376 7.43019 5.1577 7.06758C5.07164 6.70496 4.87947 6.37622 4.60572 6.12332C4.33198 5.87041 3.98907 5.70483 3.62079 5.6477C3.2525 5.59057 2.87555 5.64449 2.53805 5.80258C2.20055 5.96066 1.91782 6.21574 1.72595 6.53524C1.53408 6.85475 1.44178 7.22418 1.46083 7.59638C1.47988 7.96858 1.60941 8.32666 1.8329 8.62491C2.05639 8.92315 2.36368 9.14803 2.71556 9.27083L2.72389 9.415C2.74389 9.68583 2.77889 10.01 2.81806 10.38L2.97223 11.8108L3.04473 12.5025C3.13806 13.405 3.22806 14.2675 3.36139 14.995C3.44473 15.455 3.55139 15.8883 3.69806 16.2642C3.84389 16.6375 4.04556 16.9933 4.34306 17.26C4.86806 17.73 5.50139 17.935 6.25639 18.0317C6.98556 18.125 7.90473 18.125 9.04973 18.125H10.9497C12.0947 18.125 13.0139 18.125 13.7431 18.0317C14.4989 17.935 15.1314 17.73 15.6564 17.26C15.9539 16.9933 16.1556 16.6375 16.3014 16.2642C16.4481 15.8883 16.5547 15.455 16.6389 14.995C16.7722 14.2675 16.8614 13.405 16.9547 12.5033L17.0272 11.8117L17.1814 10.3808C17.2206 10.01 17.2564 9.68583 17.2747 9.415L17.2839 9.27083C17.6358 9.14803 17.9431 8.92315 18.1666 8.62491C18.39 8.32666 18.5196 7.96858 18.5386 7.59638C18.5577 7.22418 18.4654 6.85475 18.2735 6.53524C18.0816 6.21574 17.7989 5.96066 17.4614 5.80258C17.1239 5.64449 16.7469 5.59057 16.3787 5.6477C16.0104 5.70483 15.6675 5.87041 15.3937 6.12332C15.12 6.37622 14.9278 6.70496 14.8418 7.06758C14.7557 7.43019 14.7796 7.81023 14.9106 8.15917C14.6906 8.35667 14.4489 8.5975 14.1831 8.8625L14.1172 8.92833C13.9022 9.14333 13.7739 9.27 13.6731 9.35083C13.6516 9.36803 13.6294 9.38416 13.6064 9.39917C13.5887 9.37861 13.572 9.35719 13.5564 9.335C13.4448 9.16402 13.341 8.988 13.2456 8.8075L11.7481 6.12167L11.5814 5.825C11.9127 5.50899 12.1418 5.10097 12.2391 4.65356C12.3364 4.20614 12.2974 3.73985 12.1272 3.31479C11.957 2.88973 11.6633 2.5254 11.2842 2.26878C10.905 2.01215 10.4576 1.875 9.99973 1.875ZM8.95806 4.16667C8.95806 3.8904 9.06781 3.62545 9.26316 3.4301C9.45851 3.23475 9.72346 3.125 9.99973 3.125C10.276 3.125 10.5409 3.23475 10.7363 3.4301C10.9316 3.62545 11.0414 3.8904 11.0414 4.16667C11.0414 4.44293 10.9316 4.70789 10.7363 4.90324C10.5409 5.09859 10.276 5.20833 9.99973 5.20833C9.72346 5.20833 9.45851 5.09859 9.26316 4.90324C9.06781 4.70789 8.95806 4.44293 8.95806 4.16667ZM9.33723 6.74167C9.40389 6.62111 9.46611 6.51 9.52389 6.40833C9.83775 6.47371 10.1617 6.47371 10.4756 6.40833C10.5333 6.51 10.5956 6.62111 10.6622 6.74167L12.1681 9.44167C12.2972 9.67333 12.4164 9.8875 12.5331 10.0533C12.6572 10.2292 12.8256 10.4242 13.0847 10.5383C13.3081 10.6367 13.5547 10.6708 13.7964 10.6375C14.0764 10.5983 14.2922 10.4575 14.4597 10.3225C14.6164 10.195 14.7906 10.0217 14.9797 9.83417L14.9997 9.81417C15.3122 9.5025 15.5414 9.27667 15.7164 9.11667C15.8164 9.17556 15.9217 9.225 16.0322 9.265L16.0281 9.32667C16.0114 9.57167 15.9781 9.87417 15.9364 10.2567L15.7847 11.6775L15.7081 12.4025C15.6497 12.9608 15.5964 13.4817 15.5339 13.9583H4.46556C4.40045 13.4402 4.34212 12.9213 4.29056 12.4017L4.21556 11.6767L4.06223 10.2567C4.02475 9.92669 3.99308 9.59609 3.96723 9.265C4.07834 9.22444 4.18389 9.175 4.28389 9.11667C4.45889 9.27667 4.68723 9.5025 5.00056 9.81417L5.01973 9.83417C5.20889 10.0217 5.38306 10.195 5.53973 10.3225C5.70723 10.4575 5.92306 10.5983 6.20306 10.6375C6.44473 10.6708 6.69139 10.6367 6.91473 10.5375C7.17306 10.4242 7.34306 10.2292 7.46639 10.0533C7.5977 9.85507 7.7195 9.65067 7.83139 9.44083L9.33723 6.74167ZM4.68139 15.2083C4.73528 15.4383 4.79556 15.6383 4.86223 15.8083C4.97056 16.0833 5.07973 16.2417 5.17639 16.3283C5.44056 16.5642 5.79222 16.7117 6.41556 16.7917C7.05556 16.8742 7.89473 16.875 9.09306 16.875H10.9064C12.1047 16.875 12.9439 16.8742 13.5839 16.7917C14.2072 16.7125 14.5589 16.5642 14.8231 16.3283C14.9197 16.2417 15.0297 16.0833 15.1372 15.8092C15.2039 15.6386 15.2642 15.4383 15.3181 15.2083H4.68139ZM2.70806 7.5C2.70807 7.37671 2.74454 7.25617 2.81289 7.15356C2.88124 7.05095 2.97841 6.97084 3.09218 6.92333C3.20595 6.87581 3.33123 6.863 3.45226 6.88652C3.57329 6.91003 3.68466 6.96882 3.77236 7.05548C3.86006 7.14213 3.92017 7.2528 3.94512 7.37354C3.97008 7.49428 3.95877 7.6197 3.91261 7.73403C3.86645 7.84835 3.78751 7.94647 3.68572 8.01604C3.58393 8.08561 3.46384 8.12352 3.34056 8.125H3.33306C3.1673 8.125 3.00833 8.05915 2.89112 7.94194C2.77391 7.82473 2.70806 7.66576 2.70806 7.5ZM16.0414 7.5C16.0414 7.37639 16.078 7.25555 16.1467 7.15277C16.2154 7.04999 16.313 6.96988 16.4272 6.92258C16.5414 6.87527 16.6671 6.86289 16.7883 6.88701C16.9096 6.91112 17.0209 6.97065 17.1083 7.05806C17.1957 7.14547 17.2553 7.25683 17.2794 7.37807C17.3035 7.49931 17.2911 7.62497 17.2438 7.73918C17.1965 7.85338 17.1164 7.95099 17.0136 8.01967C16.9108 8.08834 16.79 8.125 16.6664 8.125H16.6589C16.4942 8.12368 16.3368 8.05717 16.2211 7.94003C16.1053 7.82289 16.0407 7.66467 16.0414 7.5Z" fill="white"/>
</svg>
