<svg width="16" height="16" viewBox="0 0 16 16" fill="none" xmlns="http://www.w3.org/2000/svg">
<path d="M5.71368 1.67871C3.20202 1.67871 1.16602 3.71471 1.16602 6.22638C1.16541 6.9209 1.32415 7.6063 1.63002 8.22984C1.9359 8.85338 2.38075 9.39843 2.93035 9.82304C2.63127 9.44994 2.4437 9.00025 2.38928 8.52518C2.33485 8.05011 2.41578 7.56933 2.62273 7.13825C2.82968 6.70717 3.15423 6.34335 3.55897 6.08872C3.96371 5.83408 4.43217 5.699 4.91035 5.69904H5.98902C6.52215 5.69904 7.03344 5.48726 7.41042 5.11028C7.7874 4.7333 7.99918 4.22201 7.99918 3.68888C7.99918 3.15575 7.7874 2.64445 7.41042 2.26748C7.03344 1.8905 6.52215 1.67871 5.98902 1.67871H5.71368Z" stroke="#B6003F" stroke-linecap="round" stroke-linejoin="round"/>
<path d="M10.2855 1.67871C12.7972 1.67871 14.8332 3.71471 14.8332 6.22638C14.8338 6.9209 14.675 7.6063 14.3692 8.22984C14.0633 8.85338 13.6184 9.39843 13.0688 9.82304C13.3679 9.44994 13.5555 9.00025 13.6099 8.52518C13.6643 8.05011 13.5834 7.56933 13.3765 7.13825C13.1695 6.70717 12.845 6.34335 12.4402 6.08872C12.0355 5.83408 11.567 5.699 11.0888 5.69904H10.0102C9.47704 5.69904 8.96574 5.48726 8.58876 5.11028C8.21178 4.7333 8 4.22201 8 3.68888C8 3.15575 8.21178 2.64445 8.58876 2.26748C8.96574 1.8905 9.47704 1.67871 10.0102 1.67871H10.2855Z" stroke="#B6003F" stroke-linecap="round" stroke-linejoin="round"/>
<path d="M2.93164 9.82333L7.02664 13.918C7.1545 14.046 7.30633 14.1475 7.47345 14.2168C7.64058 14.2861 7.81972 14.3218 8.00064 14.3218C8.18156 14.3218 8.3607 14.2861 8.52783 14.2168C8.69495 14.1475 8.84679 14.046 8.97464 13.918L13.0696 9.823" stroke="#B6003F" stroke-linecap="round" stroke-linejoin="round"/>
<path d="M3.52148 10.4143C4.78482 11.678 6.83382 11.678 8.09748 10.4143L9.91015 8.60164C10.53 7.98156 10.8782 7.14071 10.8782 6.26397V5.69897" stroke="#B6003F" stroke-linecap="round" stroke-linejoin="round"/>
<path d="M8.16293 10.349L6.4156 8.60164C5.79566 7.98162 5.44735 7.14076 5.44727 6.26397V5.69897" stroke="#B6003F" stroke-linecap="round" stroke-linejoin="round"/>
</svg>
