<svg width="21" height="23" viewBox="0 0 21 23" fill="none" xmlns="http://www.w3.org/2000/svg">
<path d="M13.8338 17.3333V18.5C13.8338 20.433 12.2668 22 10.3338 22C8.40082 22 6.83382 20.433 6.83382 18.5V17.3333M13.8338 17.3333H6.83382M13.8338 17.3333H18.0227C18.469 17.3333 18.6932 17.3333 18.8739 17.2724C19.2191 17.1559 19.4892 16.8849 19.6056 16.5397C19.6668 16.3583 19.6668 16.1334 19.6668 15.6836C19.6668 15.4868 19.6666 15.3884 19.6512 15.2945C19.6221 15.1172 19.5533 14.9491 19.4485 14.8031C19.3931 14.726 19.3227 14.6556 19.1839 14.5168L18.7295 14.0623C18.5829 13.9157 18.5005 13.7168 18.5005 13.5095V9.16667C18.5005 4.65633 14.8442 0.999989 10.3338 1C5.8235 1.00001 2.16715 4.65635 2.16715 9.16667V13.5095C2.16715 13.7169 2.08461 13.9157 1.93798 14.0623L1.48356 14.5168C1.34437 14.6559 1.2747 14.7259 1.21924 14.8031C1.11442 14.9491 1.04499 15.1172 1.01589 15.2945C1.00049 15.3884 1.00049 15.4868 1.00049 15.6836C1.00049 16.1334 1.00049 16.3583 1.06168 16.5397C1.17811 16.8849 1.44942 17.1559 1.7946 17.2724C1.97531 17.3333 2.19867 17.3333 2.64497 17.3333H6.83382" stroke="#8E0038" stroke-width="2" stroke-linecap="round" stroke-linejoin="round"/>
</svg>
