<svg width="24" height="24" viewBox="0 0 24 24" fill="none" xmlns="http://www.w3.org/2000/svg">
<path d="M22.7984 11.4056L20.1865 10.5637C18.5159 10.0125 17.5372 8.66062 17.0778 6.96187L15.9284 1.36312C15.8984 1.2525 15.8253 1.10437 15.6003 1.10437C15.4109 1.10437 15.3022 1.2525 15.2722 1.36312L14.1228 6.96374C13.6615 8.66249 12.6847 10.0144 11.014 10.5656L8.40217 11.4075C8.0328 11.5275 8.02717 12.0487 8.39467 12.1744L11.0253 13.08C12.6903 13.6331 13.6615 14.9831 14.1228 16.6744L15.274 22.2112C15.304 22.3219 15.3659 22.5206 15.6022 22.5206C15.8515 22.5206 15.9003 22.3219 15.9303 22.2112L17.0815 16.6744C17.5428 14.9812 18.514 13.6312 20.179 13.08L22.8097 12.1744C23.1734 12.0469 23.1678 11.5256 22.7984 11.4056Z" fill="#FF225E"/>
<path d="M23.046 11.64C23.0047 11.5369 22.9241 11.4469 22.7985 11.4057L20.1866 10.5638C18.516 10.0125 17.5372 8.66066 17.0779 6.96191L15.9285 1.36316C15.9116 1.29941 15.8516 1.18316 15.7822 1.14941L16.1535 6.76879C16.4291 9.33379 16.6654 10.5413 18.7129 10.8938C20.4716 11.1975 22.506 11.5463 23.046 11.64Z" fill="#FF004C"/>
<path d="M23.05 11.9325L18.52 12.9712C16.9243 13.3762 16.045 14.3006 16.045 16.7194L15.6006 22.5206C15.7525 22.5056 15.8762 22.4231 15.9287 22.2112L17.08 16.6744C17.5412 14.9812 18.5125 13.6312 20.1775 13.08L22.8081 12.1744C22.9318 12.1294 23.0106 12.0375 23.05 11.9325Z" fill="#DA0041"/>
<path d="M7.83927 16.2769C6.2774 15.7613 6.1349 15.1801 5.8724 14.1994L5.21802 11.9044C5.17865 11.7563 4.7924 11.7563 4.75115 11.9044L4.30677 14.0251C4.0424 15.0019 3.4799 15.7782 2.5199 16.0951L0.989895 16.7588C0.77802 16.8282 0.77427 17.1282 0.986145 17.1994L2.5274 17.7451C3.48365 18.0619 4.0424 18.8382 4.30865 19.8113L4.75302 21.8401C4.79427 21.9882 5.17865 21.9882 5.21802 21.8401L5.73927 19.8207C6.00365 18.8419 6.40865 18.0638 7.70802 17.7451L9.15552 17.1994C9.3674 17.1263 9.36552 16.8263 9.15177 16.7569L7.83927 16.2769Z" fill="#FF225E"/>
<path d="M5.34309 14.1657C5.50246 15.6394 5.58309 16.0482 6.77746 16.3538L9.26559 16.8394C9.23934 16.8038 9.20184 16.7738 9.15121 16.7588L7.83871 16.2769C6.46809 15.8082 6.08934 15.2119 5.83246 14.0194C5.57559 12.8269 5.30184 12.0488 5.30184 12.0488C5.20621 11.7919 5.06934 11.805 5.06934 11.805L5.34309 14.1657Z" fill="#FF004C"/>
<path d="M5.38609 19.3106C5.38609 17.9212 6.14547 17.2331 7.35297 17.2331L9.23172 17.1562C9.23172 17.1562 9.12297 17.3006 8.93359 17.3456L7.70734 17.745C6.66672 18.1631 6.19234 18.3731 5.86984 19.7963C5.86984 19.7963 5.45359 21.4519 5.37484 21.6262C5.26609 21.87 5.13672 21.9206 5.13672 21.9206L5.38609 19.3106Z" fill="#DA0041"/>
<path d="M11.2006 5.27621C11.3056 5.24058 11.3019 5.09058 11.195 5.06058L9.74751 4.67058C9.59863 4.63021 9.46271 4.55202 9.35298 4.4436C9.24325 4.33518 9.16342 4.20022 9.12126 4.05183L8.55126 1.69871C8.52313 1.58433 8.36001 1.58433 8.33188 1.70058L7.79563 4.04433C7.75519 4.19684 7.67479 4.3358 7.56272 4.44687C7.45066 4.55795 7.311 4.63711 7.15813 4.67621L5.72001 5.04933C5.61313 5.07746 5.60563 5.22746 5.71063 5.26496L7.22751 5.78996C7.49938 5.88371 7.70938 6.10496 7.79188 6.38058L8.33376 8.55371C8.36188 8.66621 8.52313 8.66808 8.55126 8.55371L9.11188 6.37308C9.15336 6.23697 9.22671 6.11272 9.32585 6.01065C9.42498 5.90858 9.54704 5.83163 9.68188 5.78621L11.2006 5.27621Z" fill="#DA0041" stroke="#DA0041" stroke-width="0.125" stroke-miterlimit="10"/>
</svg>
